<svg width="20" height="20" viewBox="0 0 20 20" fill="none" xmlns="http://www.w3.org/2000/svg">
<g clip-path="url(#clip0_6_70)">
<path d="M18.253 10.0212C18.2627 9.79652 18.359 9.5843 18.5218 9.42878C18.6845 9.27325 18.9012 9.18644 19.1265 9.18644C19.3519 9.18644 19.5685 9.27325 19.7313 9.42878C19.894 9.5843 19.9903 9.79652 20 10.0212C19.9998 12.0027 19.4082 13.9393 18.3007 15.5842C17.1932 17.229 15.6199 18.5074 13.7813 19.2566C11.9428 20.0058 9.92235 20.1918 7.9775 19.7908C6.03265 19.3898 4.25151 18.4201 2.86113 17.0052V19.0153C2.86113 19.2467 2.76901 19.4686 2.60504 19.6322C2.44108 19.7958 2.21869 19.8877 1.98681 19.8877C1.75493 19.8877 1.53254 19.7958 1.36857 19.6322C1.20461 19.4686 1.11249 19.2467 1.11249 19.0153V14.5361C1.11464 14.3062 1.20771 14.0864 1.37144 13.9245C1.53517 13.7627 1.75633 13.6719 1.98681 13.6719H6.52478C6.64266 13.6668 6.76036 13.6856 6.87078 13.7271C6.9812 13.7686 7.08205 13.832 7.16727 13.9134C7.25249 13.9948 7.3203 14.0926 7.36663 14.2009C7.41296 14.3092 7.43685 14.4257 7.43685 14.5435C7.43685 14.6612 7.41296 14.7777 7.36663 14.886C7.3203 14.9943 7.25249 15.0921 7.16727 15.1735C7.08205 15.2549 6.9812 15.3183 6.87078 15.3598C6.76036 15.4013 6.64266 15.4201 6.52478 15.415H3.75176C4.85294 16.6853 6.31704 17.5893 7.94773 18.0058C9.57843 18.4222 11.2977 18.3312 12.8751 17.745C14.4525 17.1588 15.8126 16.1054 16.773 14.726C17.7333 13.3466 18.248 11.7072 18.2481 10.0277L18.253 10.0212ZM17.3885 0.872395C17.3834 0.754768 17.4022 0.63733 17.4438 0.527153C17.4854 0.416977 17.5489 0.316342 17.6305 0.231311C17.7122 0.146281 17.8102 0.0786133 17.9187 0.0323855C18.0272 -0.0138423 18.144 -0.037674 18.262 -0.037674C18.38 -0.037674 18.4968 -0.0138423 18.6053 0.0323855C18.7138 0.0786133 18.8118 0.146281 18.8934 0.231311C18.975 0.316342 19.0386 0.416977 19.0802 0.527153C19.1218 0.63733 19.1406 0.754768 19.1355 0.872395V5.39388C19.1351 5.62357 19.0439 5.84383 18.8817 6.00685C18.7196 6.16987 18.4995 6.26251 18.2693 6.26465H13.7738C13.6559 6.26973 13.5382 6.25095 13.4278 6.20945C13.3174 6.16794 13.2165 6.10456 13.1313 6.02312C13.0461 5.94169 12.9782 5.84388 12.9319 5.7356C12.8856 5.62732 12.8617 5.5108 12.8617 5.39307C12.8617 5.27533 12.8856 5.15881 12.9319 5.05053C12.9782 4.94225 13.0461 4.84444 13.1313 4.76301C13.2165 4.68158 13.3174 4.61819 13.4278 4.57669C13.5382 4.53518 13.6559 4.5164 13.7738 4.52148H16.1488C15.0335 3.2792 13.5666 2.40404 11.942 2.0118C10.3174 1.61957 8.61171 1.72873 7.05065 2.32486C5.48959 2.921 4.1467 3.97599 3.19967 5.35027C2.25263 6.72455 1.74608 8.35335 1.74702 10.0212C1.75212 10.1388 1.7333 10.2562 1.6917 10.3664C1.6501 10.4766 1.58658 10.5772 1.50497 10.6622C1.42335 10.7473 1.32533 10.8149 1.21681 10.8612C1.10829 10.9074 0.991519 10.9312 0.873523 10.9312C0.755528 10.9312 0.638753 10.9074 0.530233 10.8612C0.421714 10.8149 0.323695 10.7473 0.24208 10.6622C0.160466 10.5772 0.0969461 10.4766 0.055346 10.3664C0.0137459 10.2562 -0.00507327 10.1388 2.21787e-05 10.0212C0.000952922 8.28415 0.456279 6.57747 1.32097 5.06989C2.18567 3.56231 3.42977 2.30606 4.93026 1.42536C6.43075 0.544672 8.13565 0.0700469 9.87635 0.0484251C11.617 0.0268032 13.3333 0.458934 14.8553 1.30208C15.8017 1.82772 16.657 2.50205 17.3885 3.29915V0.872395Z" fill="black"/>
</g>
<defs>
<clipPath id="clip0_6_70">
<rect width="20" height="20" fill="white"/>
</clipPath>
</defs>
</svg>
