<svg width="208" height="208" viewBox="0 0 208 208" fill="none" xmlns="http://www.w3.org/2000/svg">
<g clip-path="url(#clip0_31_28)" filter="url(#filter0_d_31_28)">
<path d="M104.212 17.47C101.965 17.3727 99.843 16.4099 98.2878 14.7824C96.7326 13.1549 95.8644 10.9885 95.8644 8.73502C95.8644 6.48155 96.7326 4.31509 98.2878 2.68762C99.843 1.06013 101.965 0.0973206 104.212 0C124.027 0.00230408 143.394 5.91814 159.842 16.9934C176.29 28.0687 189.074 43.8017 196.566 62.1869C204.058 80.5721 205.918 100.777 201.908 120.225C197.899 139.674 188.201 157.485 174.052 171.389H194.153C196.467 171.389 198.686 172.31 200.322 173.95C201.958 175.589 202.877 177.813 202.877 180.132C202.877 182.451 201.958 184.675 200.322 186.314C198.686 187.954 196.467 188.875 194.153 188.875H149.361C147.062 188.854 144.864 187.923 143.245 186.286C141.627 184.648 140.719 182.437 140.719 180.132V134.752C140.668 133.574 140.856 132.397 141.271 131.292C141.686 130.188 142.32 129.18 143.134 128.328C143.948 127.475 144.926 126.797 146.009 126.334C147.092 125.871 148.257 125.632 149.435 125.632C150.612 125.632 151.777 125.871 152.86 126.334C153.943 126.797 154.921 127.475 155.735 128.328C156.549 129.18 157.183 130.188 157.598 131.292C158.013 132.397 158.201 133.574 158.15 134.752V162.483C170.853 151.471 179.893 136.83 184.058 120.523C188.222 104.216 187.312 87.0227 181.45 71.2487C175.588 55.4747 165.054 41.8741 151.26 32.2705C137.466 22.667 121.072 17.5197 104.277 17.519L104.212 17.47ZM12.724 26.1153C11.5477 26.1663 10.3733 25.9781 9.27156 25.5621C8.1698 25.1461 7.16345 24.5109 6.31314 23.6947C5.46284 22.8786 4.78616 21.8984 4.32389 20.8132C3.86161 19.728 3.62329 18.5603 3.62329 17.3803C3.62329 16.2003 3.86161 15.0326 4.32389 13.9474C4.78616 12.8622 5.46284 11.882 6.31314 11.0659C7.16345 10.2497 8.1698 9.61453 9.27156 9.19853C10.3733 8.78253 11.5477 8.59435 12.724 8.64531H57.9388C60.2357 8.64951 62.4383 9.56134 64.0685 11.183C65.6987 12.8046 66.6251 15.0051 66.6465 17.3069V62.2625C66.6974 63.4413 66.5096 64.6183 66.0945 65.7225C65.6794 66.8267 65.0456 67.8352 64.2312 68.6874C63.4169 69.5396 62.4389 70.2178 61.356 70.681C60.2732 71.1443 59.1081 71.3832 57.9307 71.3832C56.7533 71.3832 55.5881 71.1443 54.5053 70.681C53.4225 70.2178 52.4445 69.5396 51.6301 68.6874C50.8158 67.8352 50.182 66.8267 49.7669 65.7225C49.3518 64.6183 49.164 63.4413 49.2149 62.2625V38.5124C36.792 49.6648 28.0404 64.3345 24.1181 80.5805C20.1957 96.8265 21.2874 113.883 27.2487 129.494C33.21 145.104 43.76 158.533 57.5028 168.004C71.2456 177.474 87.5335 182.539 104.212 182.53C105.388 182.479 106.562 182.667 107.664 183.083C108.766 183.499 109.772 184.134 110.622 184.951C111.473 185.767 112.149 186.747 112.612 187.832C113.074 188.917 113.312 190.085 113.312 191.265C113.312 192.445 113.074 193.613 112.612 194.698C112.149 195.783 111.473 196.763 110.622 197.579C109.772 198.396 108.766 199.031 107.664 199.447C106.562 199.863 105.388 200.051 104.212 200C86.8415 199.991 69.7747 195.437 54.6989 186.79C39.6231 178.144 27.0606 165.702 18.2537 150.698C9.44675 135.693 4.7005 118.644 4.48428 101.237C4.26806 83.8297 8.58937 66.6676 17.0209 51.4477C22.2773 41.9836 29.0206 33.4299 36.9916 26.1153H12.724Z" fill="black"/>
</g>
<defs>
<filter id="filter0_d_31_28" x="0" y="0" width="208" height="208" filterUnits="userSpaceOnUse" color-interpolation-filters="sRGB">
<feFlood flood-opacity="0" result="BackgroundImageFix"/>
<feColorMatrix in="SourceAlpha" type="matrix" values="0 0 0 0 0 0 0 0 0 0 0 0 0 0 0 0 0 0 127 0" result="hardAlpha"/>
<feOffset dy="4"/>
<feGaussianBlur stdDeviation="2"/>
<feComposite in2="hardAlpha" operator="out"/>
<feColorMatrix type="matrix" values="0 0 0 0 0 0 0 0 0 0 0 0 0 0 0 0 0 0 0.25 0"/>
<feBlend mode="normal" in2="BackgroundImageFix" result="effect1_dropShadow_31_28"/>
<feBlend mode="normal" in="SourceGraphic" in2="effect1_dropShadow_31_28" result="shape"/>
</filter>
<clipPath id="clip0_31_28">
<rect width="200" height="200" fill="white" transform="translate(4 200) rotate(-90)"/>
</clipPath>
</defs>
</svg>
